# xmcd
#
# Track frame offsets:
#	150
#	29550
#	58599
#	71129
#	91193
#	113082
#	135824
#	152808
#	169892
#	183722
#	199559
#	215394
#	232628
#	254152
#	267997
#	289222
#
# Disc length: 4074 seconds
#
# Revision: 0
# Processed by: cddbd v1.5.1PL2 Copyright (c) Steve Scherf et al.
# Submitted via: dBpowerAMP V4.0
#
DISCID=e80fe810
DTITLE=Eagles - Hell freezes over 
DYEAR=1999
DGENRE=Blues
TTITLE0=Hotel California
TTITLE1=King of Hollywood
TTITLE2=Disco strangler
TTITLE3=Heartache tonight
TTITLE4=One of these nights
TTITLE5=Victim of love
TTITLE6=In the city
TTITLE7=Funky new year
TTITLE8=Please come home for Christmas
TTITLE9=Outlaw wan
TTITLE10=Those shoes
TTITLE11=Funk
TTITLE12=Life in the fast lane
TTITLE13=Long run leftovers
TTITLE14=Too many hands
TTITLE15=James Dean
EXTD=eagles hell freezes over CD2
EXTT0=
EXTT1=
EXTT2=
EXTT3=
EXTT4=
EXTT5=
EXTT6=
EXTT7=
EXTT8=
EXTT9=
EXTT10=
EXTT11=
EXTT12=
EXTT13=
EXTT14=
EXTT15=
PLAYORDER=
